<?xml version="1.0" encoding="UTF-8" standalone="no"?>
<!-- Created with Inkscape (http://www.inkscape.org/) -->

<svg
   xmlns:dc="http://purl.org/dc/elements/1.1/"
   xmlns:cc="http://creativecommons.org/ns#"
   xmlns:rdf="http://www.w3.org/1999/02/22-rdf-syntax-ns#"
   xmlns:svg="http://www.w3.org/2000/svg"
   xmlns="http://www.w3.org/2000/svg"
   xmlns:xlink="http://www.w3.org/1999/xlink"
   xmlns:sodipodi="http://sodipodi.sourceforge.net/DTD/sodipodi-0.dtd"
   xmlns:inkscape="http://www.inkscape.org/namespaces/inkscape"
   width="800"
   height="600"
   id="svg2"
   version="1.1"
   inkscape:version="0.48+devel r10506 custom"
   sodipodi:docname="link1.svg">
  <script
     xlink:href="../jquery.js"
     id="script3177" />
  <script
     xlink:href="../magicmockup.js"
     id="script3175" />
  <defs
     id="defs4">
    <linearGradient
       inkscape:collect="always"
       id="linearGradient3397">
      <stop
         style="stop-color:#eeeeec;stop-opacity:1"
         offset="0"
         id="stop3399" />
      <stop
         style="stop-color:#babdb6;stop-opacity:1"
         offset="1"
         id="stop3401" />
    </linearGradient>
    <filter
       id="filter3155"
       x="0"
       y="0"
       width="1"
       height="1"
       inkscape:label="hover"
       inkscape:menu="Color"
       inkscape:menu-tooltip="Increase or decrease lightness and contrast"
       color-interpolation-filters="sRGB">
      <feFlood
         id="feFlood3157"
         result="result1"
         flood-opacity="0.39751552795031053"
         flood-color="rgb(252,254,138)" />
      <feBlend
         id="feBlend3159"
         in2="SourceGraphic"
         mode="screen"
         result="result2" />
      <feComposite
         id="feComposite3161"
         in2="SourceGraphic"
         k2="-0.10706638115631684"
         operator="over"
         result="result3"
         k1="2.20556745182013"
         k3="0.27837259100642342"
         k4="-0.021413276231264433" />
      <feComposite
         id="feComposite3163"
         in2="SourceGraphic"
         operator="atop"
         result="result4" />
    </filter>
    <linearGradient
       inkscape:collect="always"
       xlink:href="#linearGradient3397"
       id="linearGradient3403"
       x1="181"
       y1="554.36218"
       x2="181"
       y2="609.36218"
       gradientUnits="userSpaceOnUse"
       gradientTransform="translate(-0.5,0.49999738)" />
  </defs>
  <sodipodi:namedview
     id="base"
     pagecolor="#ffffff"
     bordercolor="#666666"
     borderopacity="1.0"
     inkscape:pageopacity="0.0"
     inkscape:pageshadow="2"
     inkscape:zoom="1"
     inkscape:cx="476"
     inkscape:cy="189.37484"
     inkscape:document-units="px"
     inkscape:current-layer="layer1"
     showgrid="false"
     showborder="true"
     inkscape:showpageshadow="false"
     inkscape:window-width="1291"
     inkscape:window-height="845"
     inkscape:window-x="92"
     inkscape:window-y="0"
     inkscape:window-maximized="0" />
  <metadata
     id="metadata7">
    <rdf:RDF>
      <cc:Work
         rdf:about="">
        <dc:format>image/svg+xml</dc:format>
        <dc:type
           rdf:resource="http://purl.org/dc/dcmitype/StillImage" />
        <dc:title />
      </cc:Work>
    </rdf:RDF>
  </metadata>
  <g
     inkscape:label="main"
     inkscape:groupmode="layer"
     id="layer1"
     transform="translate(0,-452.36218)"
     style="display:inline">
    <rect
       style="opacity:0.75000000000000000;fill:#729fcf;stroke:#3465a4;stroke-width:1;stroke-miterlimit:4;stroke-dasharray:none"
       id="rect3405"
       width="298"
       height="192"
       x="237"
       y="138"
       transform="translate(0,452.36218)"
       rx="19"
       ry="19" />
    <g
       transform="translate(30,71)"
       id="g3165">
      <desc
         id="desc3365">next=inlink</desc>
      <rect
         d="m 129.57085,555.25247 c 27.99276,-0.90028 53.77806,-0.34725 79.63433,-0.12059 m -20.56521,-10.19174 c 23.44309,-0.40156 48.06853,-0.0509 73.12054,0.4428 m -21.9277,5.72907 c 6.74232,-0.12114 13.62695,-0.25432 20.61345,-0.41515 10.43449,-0.24021 19.01833,7.98637 19.23615,18.10886 0.13796,6.41109 0.31598,12.77768 0.49982,19.08652 0.0334,1.14642 -0.046,2.26521 -0.22833,3.34617 m 5.92156,-13.89338 c 0.19979,4.51988 0.35763,9.01157 0.48394,13.48264 0.30403,10.76202 -8.06714,19.3339 -18.50451,19.43835 -17.21884,0.17233 -34.56041,0.29117 -51.3715,0.83045 m 18.97033,-8.8986 c -29.10435,-0.6952 -55.181,-0.79002 -80.02959,-1.81167 m 21.03834,6.46064 c -19.52948,0.53213 -37.79148,-0.37177 -55.35617,-2.19095 -6.49121,-0.6723 -12.04377,-5.13168 -14.72605,-11.55809 m 7.00809,13.19894 c -4.89115,-0.5307 -9.16121,-2.80976 -12.18719,-6.18904 -3.025985,-3.37928 -4.807762,-7.85845 -4.686943,-12.79517 0.164446,-6.71937 0.442317,-13.45858 0.809942,-20.21745 0.52668,-9.68315 8.110031,-17.69154 18.053261,-19.26728 m -8.60892,5.0576 c 3.44328,-5.60293 9.52878,-9.27491 16.40477,-9.14986 16.69442,0.30362 32.76501,1.18769 48.46996,2.52955 m -42.22879,1.17541 c 31.54362,0.57545 61.13976,-1.03706 90.93289,-3.40389 m -22.26674,-1.16615 c 22.51321,1.05855 46.23294,1.29277 70.49267,2.22834 8.26599,0.31877 15.40123,5.35746 18.81915,12.57973 M 262.31357,547.2842 c 0.96703,0.0133 1.93158,0.0257 2.89376,0.0372 5.49427,0.0657 10.3836,2.21696 13.91211,5.66545 3.5285,3.4485 5.69258,8.19338 5.69986,13.43144 0.009,6.63508 -0.0475,13.24008 -0.13122,19.82618 -0.13089,10.29809 -8.6108,18.56522 -19.11713,18.55273 m 11.52999,-15.08878 c -2.8632,6.17773 -8.9866,10.3132 -16.18494,10.2825 -22.85557,-0.0975 -46.83132,-1.25341 -70.34378,-2.59704 m 23.18606,7.77308 c -26.80899,0.26167 -54.50367,2.344 -80.86223,6.81538 m 24.79396,-7.28373 c -12.88209,0.60578 -25.60486,1.13721 -38.3644,1.84458 -5.41246,0.30006 -10.30561,-1.51401 -13.90169,-4.60033 -3.59608,-3.08631 -5.890624,-7.45315 -6.118654,-12.22798 -0.09287,-1.94457 -0.191526,-3.87789 -0.296989,-5.79868 m 4.790443,9.69733 c -1.5402,-2.84653 -2.42463,-6.11162 -2.43804,-9.58011 -0.0262,-6.78479 -0.11789,-13.50932 -0.26982,-20.19515 -0.2399,-10.55625 7.91331,-18.97505 17.93324,-18.89862 6.14817,0.0469 12.24695,0.0999 18.30101,0.13952 m -10.2158,2.75204 c 30.04703,0.85935 62.15666,1.01352 95.05029,2.61337 m -25.73418,-1.48063 c 23.80899,0.48299 47.00112,-0.77256 70.2552,-3.06756 9.59921,-0.94737 17.49077,5.20206 18.77631,13.2816 m -21.5769,-15.25307 c 0.38756,0.009 0.77518,0.0184 1.16285,0.0277 10.56179,0.25252 19.09639,8.95362 19.21655,19.84585 0.0761,6.89862 0.1722,13.83566 0.29109,20.83029 0.0938,5.5219 -1.92548,10.54246 -5.24717,14.28606 -3.32169,3.74361 -7.94796,6.20361 -13.0584,6.632 -5.54159,0.46453 -11.0634,0.99222 -16.56366,1.5951 m 25.78651,-10.0541 c -3.07504,2.22113 -6.81932,3.51958 -10.84554,3.51508 -23.10168,-0.0258 -45.38154,-0.73852 -66.62905,-1.8184 m 8.42017,9.19464 c -29.03083,-0.66899 -58.27775,-0.69092 -85.23767,-1.70186 m 25.09066,0.53009 c -9.53855,-0.11331 -19.17448,-0.25759 -28.87547,-0.46213 -10.56314,-0.22271 -19.131322,-8.93787 -19.277011,-19.85549 -0.09227,-6.91469 -0.199646,-13.87238 -0.311518,-20.88265 -0.09253,-5.79853 2.146053,-11.0423 5.788199,-14.8365 m -2.62992,26.20281 c -0.10746,-3.90252 -0.17992,-7.75461 -0.22133,-11.56317 -0.0586,-5.38898 2.06435,-10.17285 5.54375,-13.58736 3.4794,-3.41451 8.31548,-5.45814 13.71489,-5.32433 19.48743,0.48294 39.50833,1.61982 59.5359,2.49232 m -58.40092,1.49613 c 31.66183,-0.55539 63.20516,-2.76389 94.83401,-8.10387 m -32.96452,7.59612 c 24.72197,-0.26552 50.62205,-0.18921 76.89967,-0.22591 8.8303,-0.0123 16.32493,5.4435 19.1956,13.0124 m -22.65833,-22.35626 c 1.98566,0.0829 3.96355,0.16442 5.93426,0.24543 10.75267,0.44205 19.24243,9.26731 19.14516,20.32859 -0.0616,7.0057 -0.1747,14.0571 -0.31621,21.18895 -0.11171,5.63024 -2.34873,10.76337 -5.90762,14.63814 -3.55889,3.87478 -8.43846,6.48139 -13.83957,7.09943 -1.42726,0.16332 -2.85427,0.3324 -4.2808,0.50756 m 24.51354,-7.22198 c -3.39684,5.69569 -9.64925,9.54545 -16.8386,9.60993 -17.38777,0.15596 -34.76101,0.54166 -52.37318,1.13116 m 18.35442,2.77674 c -28.73237,-0.87658 -57.85109,-0.423 -86.36828,-0.61421 m 20.09727,0.69283 c -15.35041,0.28316 -30.35902,0.24075 -45.35129,0.0363 -10.66181,-0.14536 -19.237278,-8.80878 -19.46214,-19.5825 -0.0047,-0.22318 -0.0094,-0.44637 -0.01411,-0.66957 m 5.665317,16.57435 c -3.97116,-3.37236 -6.443374,-8.46172 -6.377201,-14.25089 0.07718,-6.75223 0.203529,-13.63297 0.3788,-20.62658 0.138368,-5.5211 2.411961,-10.57289 6.027031,-14.36175 3.61507,-3.78887 8.56826,-6.30901 14.08455,-6.80568 6.29327,-0.56662 12.62593,-1.20585 18.9978,-1.90627 m -18.74301,-6.75953 c 32.33712,-1.07121 66.7422,1.08296 101.06308,3.30522 m -29.44001,7.90649 c 23.11571,1.04244 47.19122,0.8116 71.77463,0.84025 4.34554,0.005 8.37436,1.32823 11.70513,3.58474 m -9.89707,-12.12066 c 2.82554,0.024 5.64521,0.0461 8.45965,0.0668 10.59513,0.0779 19.06664,8.59988 19.02659,19.19001 -0.0254,6.70728 -0.0673,13.41677 -0.11703,20.13535 -0.0652,8.80369 -5.96999,16.19848 -14.04131,18.54223 m 10.12716,-11.34388 c -1.65124,8.58728 -9.26783,15.07148 -18.6145,15.25968 -22.36905,0.45041 -45.76556,1.48926 -69.61315,3.08611 m 25.86823,-7.79588 c -31.84287,-0.34259 -62.64293,0.30309 -93.75107,1.06485 m 31.32757,-5.63497 c -11.76982,0.10106 -23.96357,0.3848 -36.36329,0.89468 -5.30219,0.21803 -10.12299,-1.66228 -13.64508,-4.82034 -3.52209,-3.15806 -5.74551,-7.59931 -5.86621,-12.4757 -0.15289,-6.17694 -0.3145,-12.27723 -0.4502,-18.29393 -0.0118,-0.52501 0.003,-1.04372 0.042,-1.55498 m -9.95155,34.57227 c -0.06006,-0.57394 -0.09339,-1.15597 -0.0988,-1.74488 -0.06023,-6.5576 -0.04992,-13.15998 0.02188,-19.79295 0.113359,-10.47281 8.805336,-18.96536 19.702686,-19.00643 14.0596,-0.053 28.31817,-0.14496 42.69907,-0.15593 m 117.22405,49.21404 -160.85937,0 m -17.827316,-26.04882 6.098696,-32.9204 m 18.88185,65.0704 -27.730935,-18.64298 m 3.139771,-45.4582 190.156254,0 m 57.43734,58 -169.53125,0"
         style="opacity:1;fill:url(#linearGradient3403);fill-opacity:1;stroke:#babdb6"
         id="rect3167"
         width="183"
         height="58"
         x="100.5"
         y="547.86218"
         rx="19"
         ry="19" />
      <text
         sodipodi:linespacing="125%"
         id="text3169"
         y="582.81152"
         x="129.45815"
         style="font-size:25.27677917px;font-style:normal;font-weight:normal;line-height:125%;letter-spacing:0px;word-spacing:0px;fill:#000000;fill-opacity:1;stroke:none;font-family:Sans"
         xml:space="preserve"><tspan
           y="582.81152"
           x="129.45815"
           id="tspan3171"
           sodipodi:role="line">same doc</tspan></text>
    </g>
    <g
       id="g3137"
       transform="translate(-140,-189)"
       style="filter:url(#filter3155)">
      <rect
         ry="19"
         rx="19.000002"
         y="547.36218"
         x="101"
         height="58"
         width="211"
         id="rect3139"
         style="opacity:0.75;fill:#babdb6;stroke:none"
         d="m 129.57085,555.25247 c 27.99276,-0.90028 53.77806,-0.34725 79.63433,-0.12059 m -20.56521,-10.19174 c 23.44309,-0.40156 48.06853,-0.0509 73.12054,0.4428 m -21.9277,5.72907 c 6.74232,-0.12114 13.62695,-0.25432 20.61345,-0.41515 10.43449,-0.24021 19.01833,7.98637 19.23615,18.10886 0.13796,6.41109 0.31598,12.77768 0.49982,19.08652 0.0334,1.14642 -0.046,2.26521 -0.22833,3.34617 m 5.92156,-13.89338 c 0.19979,4.51988 0.35763,9.01157 0.48394,13.48264 0.30403,10.76202 -8.06714,19.3339 -18.50451,19.43835 -17.21884,0.17233 -34.56041,0.29117 -51.3715,0.83045 m 18.97033,-8.8986 c -29.10435,-0.6952 -55.181,-0.79002 -80.02959,-1.81167 m 21.03834,6.46064 c -19.52948,0.53213 -37.79148,-0.37177 -55.35617,-2.19095 -6.49121,-0.6723 -12.04377,-5.13168 -14.72605,-11.55809 m 7.00809,13.19894 c -4.89115,-0.5307 -9.16121,-2.80976 -12.18719,-6.18904 -3.025985,-3.37928 -4.807762,-7.85845 -4.686943,-12.79517 0.164446,-6.71937 0.442317,-13.45858 0.809942,-20.21745 0.52668,-9.68315 8.110031,-17.69154 18.053261,-19.26728 m -8.60892,5.0576 c 3.44328,-5.60293 9.52878,-9.27491 16.40477,-9.14986 16.69442,0.30362 32.76501,1.18769 48.46996,2.52955 m -42.22879,1.17541 c 31.54362,0.57545 61.13976,-1.03706 90.93289,-3.40389 m -22.26674,-1.16615 c 22.51321,1.05855 46.23294,1.29277 70.49267,2.22834 8.26599,0.31877 15.40123,5.35746 18.81915,12.57973 M 262.31357,547.2842 c 0.96703,0.0133 1.93158,0.0257 2.89376,0.0372 5.49427,0.0657 10.3836,2.21696 13.91211,5.66545 3.5285,3.4485 5.69258,8.19338 5.69986,13.43144 0.009,6.63508 -0.0475,13.24008 -0.13122,19.82618 -0.13089,10.29809 -8.6108,18.56522 -19.11713,18.55273 m 11.52999,-15.08878 c -2.8632,6.17773 -8.9866,10.3132 -16.18494,10.2825 -22.85557,-0.0975 -46.83132,-1.25341 -70.34378,-2.59704 m 23.18606,7.77308 c -26.80899,0.26167 -54.50367,2.344 -80.86223,6.81538 m 24.79396,-7.28373 c -12.88209,0.60578 -25.60486,1.13721 -38.3644,1.84458 -5.41246,0.30006 -10.30561,-1.51401 -13.90169,-4.60033 -3.59608,-3.08631 -5.890624,-7.45315 -6.118654,-12.22798 -0.09287,-1.94457 -0.191526,-3.87789 -0.296989,-5.79868 m 4.790443,9.69733 c -1.5402,-2.84653 -2.42463,-6.11162 -2.43804,-9.58011 -0.0262,-6.78479 -0.11789,-13.50932 -0.26982,-20.19515 -0.2399,-10.55625 7.91331,-18.97505 17.93324,-18.89862 6.14817,0.0469 12.24695,0.0999 18.30101,0.13952 m -10.2158,2.75204 c 30.04703,0.85935 62.15666,1.01352 95.05029,2.61337 m -25.73418,-1.48063 c 23.80899,0.48299 47.00112,-0.77256 70.2552,-3.06756 9.59921,-0.94737 17.49077,5.20206 18.77631,13.2816 m -21.5769,-15.25307 c 0.38756,0.009 0.77518,0.0184 1.16285,0.0277 10.56179,0.25252 19.09639,8.95362 19.21655,19.84585 0.0761,6.89862 0.1722,13.83566 0.29109,20.83029 0.0938,5.5219 -1.92548,10.54246 -5.24717,14.28606 -3.32169,3.74361 -7.94796,6.20361 -13.0584,6.632 -5.54159,0.46453 -11.0634,0.99222 -16.56366,1.5951 m 25.78651,-10.0541 c -3.07504,2.22113 -6.81932,3.51958 -10.84554,3.51508 -23.10168,-0.0258 -45.38154,-0.73852 -66.62905,-1.8184 m 8.42017,9.19464 c -29.03083,-0.66899 -58.27775,-0.69092 -85.23767,-1.70186 m 25.09066,0.53009 c -9.53855,-0.11331 -19.17448,-0.25759 -28.87547,-0.46213 -10.56314,-0.22271 -19.131322,-8.93787 -19.277011,-19.85549 -0.09227,-6.91469 -0.199646,-13.87238 -0.311518,-20.88265 -0.09253,-5.79853 2.146053,-11.0423 5.788199,-14.8365 m -2.62992,26.20281 c -0.10746,-3.90252 -0.17992,-7.75461 -0.22133,-11.56317 -0.0586,-5.38898 2.06435,-10.17285 5.54375,-13.58736 3.4794,-3.41451 8.31548,-5.45814 13.71489,-5.32433 19.48743,0.48294 39.50833,1.61982 59.5359,2.49232 m -58.40092,1.49613 c 31.66183,-0.55539 63.20516,-2.76389 94.83401,-8.10387 m -32.96452,7.59612 c 24.72197,-0.26552 50.62205,-0.18921 76.89967,-0.22591 8.8303,-0.0123 16.32493,5.4435 19.1956,13.0124 m -22.65833,-22.35626 c 1.98566,0.0829 3.96355,0.16442 5.93426,0.24543 10.75267,0.44205 19.24243,9.26731 19.14516,20.32859 -0.0616,7.0057 -0.1747,14.0571 -0.31621,21.18895 -0.11171,5.63024 -2.34873,10.76337 -5.90762,14.63814 -3.55889,3.87478 -8.43846,6.48139 -13.83957,7.09943 -1.42726,0.16332 -2.85427,0.3324 -4.2808,0.50756 m 24.51354,-7.22198 c -3.39684,5.69569 -9.64925,9.54545 -16.8386,9.60993 -17.38777,0.15596 -34.76101,0.54166 -52.37318,1.13116 m 18.35442,2.77674 c -28.73237,-0.87658 -57.85109,-0.423 -86.36828,-0.61421 m 20.09727,0.69283 c -15.35041,0.28316 -30.35902,0.24075 -45.35129,0.0363 -10.66181,-0.14536 -19.237278,-8.80878 -19.46214,-19.5825 -0.0047,-0.22318 -0.0094,-0.44637 -0.01411,-0.66957 m 5.665317,16.57435 c -3.97116,-3.37236 -6.443374,-8.46172 -6.377201,-14.25089 0.07718,-6.75223 0.203529,-13.63297 0.3788,-20.62658 0.138368,-5.5211 2.411961,-10.57289 6.027031,-14.36175 3.61507,-3.78887 8.56826,-6.30901 14.08455,-6.80568 6.29327,-0.56662 12.62593,-1.20585 18.9978,-1.90627 m -18.74301,-6.75953 c 32.33712,-1.07121 66.7422,1.08296 101.06308,3.30522 m -29.44001,7.90649 c 23.11571,1.04244 47.19122,0.8116 71.77463,0.84025 4.34554,0.005 8.37436,1.32823 11.70513,3.58474 m -9.89707,-12.12066 c 2.82554,0.024 5.64521,0.0461 8.45965,0.0668 10.59513,0.0779 19.06664,8.59988 19.02659,19.19001 -0.0254,6.70728 -0.0673,13.41677 -0.11703,20.13535 -0.0652,8.80369 -5.96999,16.19848 -14.04131,18.54223 m 10.12716,-11.34388 c -1.65124,8.58728 -9.26783,15.07148 -18.6145,15.25968 -22.36905,0.45041 -45.76556,1.48926 -69.61315,3.08611 m 25.86823,-7.79588 c -31.84287,-0.34259 -62.64293,0.30309 -93.75107,1.06485 m 31.32757,-5.63497 c -11.76982,0.10106 -23.96357,0.3848 -36.36329,0.89468 -5.30219,0.21803 -10.12299,-1.66228 -13.64508,-4.82034 -3.52209,-3.15806 -5.74551,-7.59931 -5.86621,-12.4757 -0.15289,-6.17694 -0.3145,-12.27723 -0.4502,-18.29393 -0.0118,-0.52501 0.003,-1.04372 0.042,-1.55498 m -9.95155,34.57227 c -0.06006,-0.57394 -0.09339,-1.15597 -0.0988,-1.74488 -0.06023,-6.5576 -0.04992,-13.15998 0.02188,-19.79295 0.113359,-10.47281 8.805336,-18.96536 19.702686,-19.00643 14.0596,-0.053 28.31817,-0.14496 42.69907,-0.15593 m 117.22405,49.21404 -160.85937,0 m -17.827316,-26.04882 6.098696,-32.9204 m 18.88185,65.0704 -27.730935,-18.64298 m 3.139771,-45.4582 190.156254,0 m 57.43734,58 -169.53125,0" />
      <text
         xml:space="preserve"
         style="font-size:25.27677917px;font-style:normal;font-weight:normal;line-height:125%;letter-spacing:0px;word-spacing:0px;fill:#000000;fill-opacity:1;stroke:none;font-family:Sans"
         x="129.45815"
         y="582.81152"
         id="text3141"
         sodipodi:linespacing="125%"><tspan
           sodipodi:role="line"
           id="tspan3143"
           x="129.45815"
           y="582.81152">hover effect</tspan></text>
    </g>
    <g
       id="g3145"
       transform="translate(328,95)">
      <desc
         id="desc5769">next=link2.svg#works</desc>
      <rect
         ry="19"
         rx="19"
         y="547.36218"
         x="101"
         height="58"
         width="212"
         id="rect3147"
         style="opacity:1;fill:#babdb6;stroke:none" />
      <text
         xml:space="preserve"
         style="font-size:25.27677917px;font-style:normal;font-weight:normal;line-height:125%;letter-spacing:0px;word-spacing:0px;fill:#000000;fill-opacity:1;stroke:none;font-family:Sans"
         x="129.45815"
         y="582.81152"
         id="text3149"
         sodipodi:linespacing="125%"><tspan
           sodipodi:role="line"
           id="tspan3151"
           x="129.45815"
           y="582.81152">another doc</tspan></text>
    </g>
    <g
       id="g3132"
       transform="translate(154,210)">
      <path
         style="opacity:1;fill:#babdb6;stroke:none"
         d="m 120,547.36218 241,0 c 10.526,0 19,8.474 19,19 l 0,20 c 0,10.526 -8.474,19 -19,19 l -241,0 c -10.526,0 -19,-8.474 -19,-19 l 0,-20 c 0,-10.526 8.474,-19 19,-19 z"
         id="rect3124"
         inkscape:connector-curvature="0" />
      <g
         style="font-size:25.27677917px;font-style:normal;font-weight:normal;line-height:125%;letter-spacing:0px;word-spacing:0px;fill:#000000;fill-opacity:1;stroke:none;font-family:Sans"
         id="text3128">
        <path
           d="m 131.84019,568.98828 2.27096,0 0,13.82324 -2.27096,0 0,-13.82324 z m 0,-5.38118 2.27096,0 0,2.87572 -2.27096,0 0,-2.87572 z"
           id="path3250"
           inkscape:connector-curvature="0" />
        <path
           d="m 149.61292,571.64185 q 0.85161,-1.53043 2.03646,-2.25862 1.18485,-0.72818 2.78933,-0.72818 2.15988,0 3.33239,1.51808 1.17251,1.50575 1.17251,4.29508 l 0,8.34331 -2.28331,0 0,-8.26926 q 0,-1.98709 -0.7035,-2.94978 -0.7035,-0.96269 -2.14754,-0.96269 -1.76493,0 -2.78933,1.17251 -1.0244,1.17251 -1.0244,3.19663 l 0,7.81259 -2.2833,0 0,-8.26926 q 0,-1.99943 -0.70351,-2.94978 -0.7035,-0.96269 -2.17222,-0.96269 -1.74025,0 -2.76465,1.18485 -1.0244,1.17251 -1.0244,3.18429 l 0,7.81259 -2.2833,0 0,-13.82324 2.2833,0 0,2.14754 q 0.77756,-1.27124 1.86367,-1.87601 1.08611,-0.60476 2.57951,-0.60476 1.50575,0 2.55483,0.76521 1.06143,0.76522 1.56746,2.22159 z"
           id="path3252"
           inkscape:connector-curvature="0" />
        <path
           d="m 165.68244,580.73804 0,7.33125 -2.28331,0 0,-19.08101 2.28331,0 0,2.09817 q 0.71584,-1.23421 1.80195,-1.82664 1.09846,-0.60476 2.61655,-0.60476 2.5178,0 4.08526,1.99943 1.5798,1.99943 1.5798,5.25777 0,3.25833 -1.5798,5.25776 -1.56746,1.99944 -4.08526,1.99944 -1.51809,0 -2.61655,-0.59243 -1.08611,-0.60476 -1.80195,-1.83898 z m 7.7262,-4.82579 q 0,-2.50547 -1.03674,-3.92482 -1.0244,-1.43169 -2.82636,-1.43169 -1.80196,0 -2.8387,1.43169 -1.0244,1.41935 -1.0244,3.92482 0,2.50546 1.0244,3.93715 1.03674,1.41935 2.8387,1.41935 1.80196,0 2.82636,-1.41935 1.03674,-1.43169 1.03674,-3.93715 z"
           id="path3254"
           inkscape:connector-curvature="0" />
        <path
           d="m 179.53036,563.6071 2.27096,0 0,19.20442 -2.27096,0 0,-19.20442 z"
           id="path3256"
           inkscape:connector-curvature="0" />
        <path
           d="m 186.54072,568.98828 2.27096,0 0,13.82324 -2.27096,0 0,-13.82324 z m 0,-5.38118 2.27096,0 0,2.87572 -2.27096,0 0,-2.87572 z"
           id="path3258"
           inkscape:connector-curvature="0" />
        <path
           d="m 205.37488,575.33216 0,1.1108 -10.44148,0 q 0.1481,2.34501 1.40701,3.57923 1.27124,1.22188 3.52986,1.22188 1.30827,0 2.53014,-0.3209 1.23422,-0.3209 2.44376,-0.96269 l 0,2.14754 q -1.22188,0.51837 -2.50547,0.7899 -1.28358,0.27153 -2.6042,0.27153 -3.3077,0 -5.24542,-1.92538 -1.92538,-1.92538 -1.92538,-5.2084 0,-3.3941 1.82664,-5.38119 1.83899,-1.99943 4.94921,-1.99943 2.78934,0 4.40616,1.80195 1.62917,1.78962 1.62917,4.87516 z m -2.27096,-0.66647 q -0.0247,-1.86367 -1.04909,-2.97447 -1.01206,-1.11079 -2.69059,-1.11079 -1.9007,0 -3.04852,1.07377 -1.13548,1.07376 -1.30827,3.02383 l 8.09647,-0.0123 z"
           id="path3260"
           inkscape:connector-curvature="0" />
        <path
           d="m 218.1984,571.08645 0,-7.47935 2.27096,0 0,19.20442 -2.27096,0 0,-2.07348 q -0.71584,1.23422 -1.8143,1.83898 -1.08611,0.59243 -2.61654,0.59243 -2.50546,0 -4.08526,-1.99944 -1.56746,-1.99943 -1.56746,-5.25776 0,-3.25834 1.56746,-5.25777 1.5798,-1.99943 4.08526,-1.99943 1.53043,0 2.61654,0.60476 1.09846,0.59243 1.8143,1.82664 z m -7.73854,4.8258 q 0,2.50546 1.0244,3.93715 1.03674,1.41935 2.8387,1.41935 1.80196,0 2.8387,-1.41935 1.03674,-1.43169 1.03674,-3.93715 0,-2.50547 -1.03674,-3.92482 -1.03674,-1.43169 -2.8387,-1.43169 -1.80196,0 -2.8387,1.43169 -1.0244,1.41935 -1.0244,3.92482 z"
           id="path3262"
           inkscape:connector-curvature="0" />
        <path
           d="m 238.55065,570.58043 q -1.82664,0 -2.88807,1.43169 -1.06143,1.41935 -1.06143,3.90013 0,2.48077 1.04909,3.91247 1.06142,1.41935 2.90041,1.41935 1.8143,0 2.87573,-1.4317 1.06142,-1.43169 1.06142,-3.90012 0,-2.4561 -1.06142,-3.88779 -1.06143,-1.44403 -2.87573,-1.44403 z m 0,-1.92538 q 2.96212,0 4.653,1.92538 1.69088,1.92538 1.69088,5.33182 0,3.3941 -1.69088,5.33182 -1.69088,1.92538 -4.653,1.92538 -2.97447,0 -4.66534,-1.92538 -1.67854,-1.93772 -1.67854,-5.33182 0,-3.40644 1.67854,-5.33182 1.69087,-1.92538 4.66534,-1.92538 z"
           id="path3264"
           inkscape:connector-curvature="0" />
        <path
           d="m 250.89283,565.06347 0,3.92481 4.67768,0 0,1.76494 -4.67768,0 0,7.50404 q 0,1.69088 0.45666,2.17222 0.469,0.48135 1.88835,0.48135 l 2.33267,0 0,1.90069 -2.33267,0 q -2.62888,0 -3.6286,-0.97503 -0.99972,-0.98737 -0.99972,-3.57923 l 0,-7.50404 -1.66619,0 0,-1.76494 1.66619,0 0,-3.92481 2.28331,0 z"
           id="path3266"
           inkscape:connector-curvature="0" />
        <path
           d="m 270.06023,574.46821 0,8.34331 -2.27096,0 0,-8.26926 q 0,-1.9624 -0.76522,-2.93743 -0.76521,-0.97504 -2.29564,-0.97504 -1.83899,0 -2.90041,1.17251 -1.06143,1.17251 -1.06143,3.19663 l 0,7.81259 -2.2833,0 0,-19.20442 2.2833,0 0,7.52872 q 0.81458,-1.24656 1.91304,-1.86367 1.11079,-0.6171 2.55483,-0.6171 2.38204,0 3.60391,1.48106 1.22188,1.46872 1.22188,4.3321 z"
           id="path3268"
           inkscape:connector-curvature="0" />
        <path
           d="m 286.4383,575.33216 0,1.1108 -10.44148,0 q 0.1481,2.34501 1.407,3.57923 1.27125,1.22188 3.52987,1.22188 1.30827,0 2.53014,-0.3209 1.23422,-0.3209 2.44375,-0.96269 l 0,2.14754 q -1.22187,0.51837 -2.50546,0.7899 -1.28358,0.27153 -2.6042,0.27153 -3.3077,0 -5.24542,-1.92538 -1.92538,-1.92538 -1.92538,-5.2084 0,-3.3941 1.82664,-5.38119 1.83899,-1.99943 4.94921,-1.99943 2.78934,0 4.40616,1.80195 1.62917,1.78962 1.62917,4.87516 z m -2.27096,-0.66647 q -0.0247,-1.86367 -1.04909,-2.97447 -1.01206,-1.11079 -2.69059,-1.11079 -1.9007,0 -3.04852,1.07377 -1.13548,1.07376 -1.30827,3.02383 l 8.09647,-0.0123 z"
           id="path3270"
           inkscape:connector-curvature="0" />
        <path
           d="m 298.17571,571.11114 q -0.3826,-0.22216 -0.83926,-0.3209 -0.44432,-0.11108 -0.98738,-0.11108 -1.92538,0 -2.96212,1.25891 -1.0244,1.24656 -1.0244,3.59157 l 0,7.28188 -2.28331,0 0,-13.82324 2.28331,0 0,2.14754 q 0.71584,-1.2589 1.86367,-1.86367 1.14782,-0.6171 2.78933,-0.6171 0.2345,0 0.51837,0.037 0.28387,0.0247 0.62945,0.0864 l 0.0123,2.33267 z"
           id="path3272"
           inkscape:connector-curvature="0" />
        <path
           d="m 317.72572,571.08645 0,-7.47935 2.27096,0 0,19.20442 -2.27096,0 0,-2.07348 q -0.71584,1.23422 -1.8143,1.83898 -1.08611,0.59243 -2.61654,0.59243 -2.50546,0 -4.08526,-1.99944 -1.56746,-1.99943 -1.56746,-5.25776 0,-3.25834 1.56746,-5.25777 1.5798,-1.99943 4.08526,-1.99943 1.53043,0 2.61654,0.60476 1.09846,0.59243 1.8143,1.82664 z m -7.73854,4.8258 q 0,2.50546 1.0244,3.93715 1.03674,1.41935 2.8387,1.41935 1.80196,0 2.8387,-1.41935 1.03674,-1.43169 1.03674,-3.93715 0,-2.50547 -1.03674,-3.92482 -1.03674,-1.43169 -2.8387,-1.43169 -1.80196,0 -2.8387,1.43169 -1.0244,1.41935 -1.0244,3.92482 z"
           id="path3274"
           inkscape:connector-curvature="0" />
        <path
           d="m 330.03087,570.58043 q -1.82664,0 -2.88807,1.43169 -1.06142,1.41935 -1.06142,3.90013 0,2.48077 1.04908,3.91247 1.06143,1.41935 2.90041,1.41935 1.8143,0 2.87573,-1.4317 1.06143,-1.43169 1.06143,-3.90012 0,-2.4561 -1.06143,-3.88779 -1.06143,-1.44403 -2.87573,-1.44403 z m 0,-1.92538 q 2.96213,0 4.653,1.92538 1.69088,1.92538 1.69088,5.33182 0,3.3941 -1.69088,5.33182 -1.69087,1.92538 -4.653,1.92538 -2.97446,0 -4.66534,-1.92538 -1.67854,-1.93772 -1.67854,-5.33182 0,-3.40644 1.67854,-5.33182 1.69088,-1.92538 4.66534,-1.92538 z"
           id="path3276"
           inkscape:connector-curvature="0" />
        <path
           d="m 350.07457,569.519 0,2.12285 q -0.96269,-0.53071 -1.93772,-0.7899 -0.96269,-0.27152 -1.95006,-0.27152 -2.20925,0 -3.43113,1.407 -1.22188,1.39467 -1.22188,3.92482 0,2.53014 1.22188,3.93715 1.22188,1.39467 3.43113,1.39467 0.98737,0 1.95006,-0.25919 0.97503,-0.27153 1.93772,-0.80224 l 0,2.09817 q -0.95035,0.44432 -1.97475,0.66648 -1.01206,0.22216 -2.15988,0.22216 -3.12257,0 -4.96155,-1.96241 -1.83899,-1.96241 -1.83899,-5.29479 0,-3.38176 1.85133,-5.31948 1.86367,-1.93772 5.09732,-1.93772 1.04908,0 2.0488,0.22216 0.99972,0.20981 1.93772,0.64179 z"
           id="path3278"
           inkscape:connector-curvature="0" />
      </g>
    </g>
  </g>
  <g
     inkscape:groupmode="layer"
     id="layer2"
     inkscape:label="inlink"
     style="display:none">
    <g
       id="g3358">
      <desc
         id="desc3363">next=main</desc>
      <rect
         ry="19"
         rx="19.000002"
         y="187"
         x="304"
         height="91"
         width="346"
         id="rect3352"
         style="opacity:0.75;fill:#babdb6;stroke:none" />
      <text
         sodipodi:linespacing="125%"
         id="text3354"
         y="247.41211"
         x="422.60547"
         style="font-size:40px;font-style:normal;font-weight:normal;line-height:125%;letter-spacing:0px;word-spacing:0px;fill:#000000;fill-opacity:1;stroke:none;font-family:Sans"
         xml:space="preserve"><tspan
           y="247.41211"
           x="422.60547"
           id="tspan3356"
           sodipodi:role="line">back!</tspan></text>
    </g>
  </g>
</svg>
